<svg width="26" height="26" viewBox="0 0 26 26" fill="none" xmlns="http://www.w3.org/2000/svg">
<path fill-rule="evenodd" clip-rule="evenodd" d="M16.3887 6.91534C17.3747 7.49053 18.1459 8.43466 18.1459 9.74991V13.7828L19.6675 15.5579C20.7216 16.7877 19.8478 18.6875 18.228 18.6875H7.77218C6.15247 18.6875 5.27866 16.7877 6.33275 15.5579L7.85428 13.7828V9.74986C7.85428 8.43463 8.62549 7.49051 9.61156 6.91533C10.5799 6.3505 11.8145 6.09375 13.0001 6.09375C14.1857 6.09375 15.4203 6.3505 16.3887 6.91534ZM10.4303 8.31898C9.7914 8.69167 9.47928 9.16936 9.47928 9.74986V13.8836C9.47928 14.2079 9.36295 14.5196 9.15327 14.7642L7.56654 16.6154C7.41596 16.7911 7.54079 17.0625 7.77218 17.0625H18.228C18.4594 17.0625 18.5843 16.7911 18.4337 16.6154L16.8469 14.7642C16.6373 14.5196 16.5209 14.2079 16.5209 13.8836V9.74991C16.5209 9.16938 16.2088 8.69168 15.5699 8.31899C14.9132 7.93594 13.9812 7.71875 13.0001 7.71875C12.0191 7.71875 11.087 7.93594 10.4303 8.31898Z" fill="white"/>
<path d="M14.625 5.95831C14.625 6.85578 13.8975 7.58331 13 7.58331C12.1025 7.58331 11.375 6.85578 11.375 5.95831C11.375 5.06085 12.1025 4.33331 13 4.33331C13.8975 4.33331 14.625 5.06085 14.625 5.95831Z" fill="white"/>
<path fill-rule="evenodd" clip-rule="evenodd" d="M11.2872 18.6875C11.3793 18.8817 11.5046 19.0607 11.6595 19.2156C12.0151 19.5711 12.4973 19.7708 13.0001 19.7708C13.5029 19.7708 13.9851 19.5711 14.3406 19.2156C14.4955 19.0607 14.6209 18.8817 14.713 18.6875L11.2872 18.6875ZM16.5209 17.0625V17.875C16.5209 18.8088 16.15 19.7043 15.4897 20.3646C14.8294 21.0249 13.9339 21.3958 13.0001 21.3958C12.0663 21.3958 11.1708 21.0249 10.5105 20.3646C9.85019 19.7043 9.47925 18.8088 9.47925 17.875L9.47925 17.0625L16.5209 17.0625Z" fill="white"/>
<circle cx="17" cy="5" r="3" fill="#4BA8E6"/>
</svg>
