<svg width="26" height="26" viewBox="0 0 26 26" fill="none" xmlns="http://www.w3.org/2000/svg">
<path fill-rule="evenodd" clip-rule="evenodd" d="M14.6853 5.83078C13.9795 4.4607 12.0206 4.4607 11.3147 5.83078L10.7077 7.00897C10.6471 7.12658 10.5104 7.1832 10.3844 7.14288L9.12208 6.73899C7.65417 6.26932 6.26902 7.65447 6.73869 9.12239L7.14258 10.3847C7.18289 10.5107 7.12627 10.6474 7.00866 10.708L5.83048 11.315C4.4604 12.0209 4.4604 13.9798 5.83048 14.6856L7.00866 15.2926C7.12627 15.3532 7.18289 15.4899 7.14258 15.6159L6.73869 16.8782C6.26902 18.3462 7.65417 19.7313 9.12208 19.2616L10.3844 18.8577C10.5104 18.8174 10.6471 18.874 10.7077 18.9917L11.3147 20.1698C12.0206 21.5399 13.9795 21.5399 14.6853 20.1698L15.2923 18.9917C15.3529 18.874 15.4896 18.8174 15.6156 18.8577L16.8779 19.2616C18.3458 19.7313 19.731 18.3462 19.2613 16.8782L18.8574 15.6159C18.8171 15.4899 18.8737 15.3532 18.9914 15.2926L20.1695 14.6856C21.5396 13.9798 21.5396 12.0209 20.1695 11.315L18.9914 10.708C18.8737 10.6474 18.8171 10.5107 18.8574 10.3847L19.2613 9.12239C19.731 7.65447 18.3458 6.26932 16.8779 6.73899L15.6156 7.14288C15.4896 7.1832 15.3529 7.12658 15.2923 7.00897L14.6853 5.83078Z" fill="#4BA8E6"/>
<path d="M15.1666 13.0002C15.1666 14.1968 14.1966 15.1668 13 15.1668C11.8034 15.1668 10.8333 14.1968 10.8333 13.0002C10.8333 11.8035 11.8034 10.8335 13 10.8335C14.1966 10.8335 15.1666 11.8035 15.1666 13.0002Z" fill="#4BA8E6"/>
<path fill-rule="evenodd" clip-rule="evenodd" d="M13 11.646C12.2521 11.646 11.6458 12.2523 11.6458 13.0002C11.6458 13.748 12.2521 14.3543 13 14.3543C13.7479 14.3543 14.3541 13.748 14.3541 13.0002C14.3541 12.2523 13.7479 11.646 13 11.646ZM10.0208 13.0002C10.0208 11.3548 11.3546 10.021 13 10.021C14.6453 10.021 15.9791 11.3548 15.9791 13.0002C15.9791 14.6455 14.6453 15.9793 13 15.9793C11.3546 15.9793 10.0208 14.6455 10.0208 13.0002Z" fill="#A3DAFE"/>
</svg>
