<svg width="20" height="20" viewBox="0 0 20 20" fill="none" xmlns="http://www.w3.org/2000/svg">
<path fill-rule="evenodd" clip-rule="evenodd" d="M0.381888 13.3003C-0.127296 11.1296 -0.127296 8.87045 0.381887 6.69972C1.11722 3.5649 3.56491 1.11721 6.69972 0.381886C8.87045 -0.127294 11.1296 -0.127296 13.3003 0.381886C16.4351 1.11721 18.8828 3.5649 19.6181 6.69972C20.1273 8.87045 20.1273 11.1296 19.6181 13.3003C18.8828 16.4351 16.4351 18.8828 13.3003 19.6181C11.1296 20.1273 8.87045 20.1273 6.69972 19.6181C3.5649 18.8828 1.11722 16.4351 0.381888 13.3003ZM8.28583 3.25C8.70004 3.25 9.03583 3.58579 9.03583 4V4.96433H10.0002C10.4144 4.96433 10.7502 5.30012 10.7502 5.71433C10.7502 6.12855 10.4144 6.46433 10.0002 6.46433H9.01177C8.90471 8.12849 8.44251 9.71914 7.66654 10.9607C7.61881 11.0371 7.5699 11.112 7.51985 11.1855C8.27573 11.5147 9.1959 11.7332 10.1879 11.8018L11.886 7.98107C12.0064 7.71022 12.2749 7.53567 12.5713 7.53567C12.8677 7.53567 13.1363 7.71022 13.2567 7.98107L16.6854 15.6956C16.8536 16.0741 16.6831 16.5173 16.3046 16.6855C15.9261 16.8538 15.4829 16.6833 15.3146 16.3048L14.7507 15.0358H10.392L9.82803 16.3048C9.6598 16.6833 9.21658 16.8538 8.83807 16.6855C8.45955 16.5173 8.28908 16.0741 8.45731 15.6956L9.54533 13.2475C8.42734 13.1144 7.36855 12.8114 6.48276 12.3525C5.76036 12.9629 4.91487 13.3217 4 13.3217C3.58579 13.3217 3.25 12.9859 3.25 12.5717C3.25 12.1574 3.58579 11.8217 4 11.8217C4.38556 11.8217 4.79193 11.7021 5.1902 11.4476C4.52376 10.8108 4.10575 10.0248 4.10717 9.14179C4.10783 8.72758 4.44416 8.39233 4.85837 8.393C5.27258 8.39366 5.60783 8.72999 5.60717 9.1442C5.60656 9.51842 5.79097 9.95844 6.24903 10.3867C6.29821 10.3158 6.34674 10.2422 6.39454 10.1657C7.00414 9.19033 7.40338 7.88465 7.50826 6.46433H4C3.58579 6.46433 3.25 6.12855 3.25 5.71433C3.25 5.30012 3.58579 4.96433 4 4.96433H7.53583V4C7.53583 3.58579 7.87162 3.25 8.28583 3.25ZM12.5713 10.1323L14.084 13.5358H11.0587L12.5713 10.1323Z" fill="#4BA8E6"/>
</svg>
