<svg width="20" height="20" viewBox="0 0 20 20" fill="none" xmlns="http://www.w3.org/2000/svg">
<path fill-rule="evenodd" clip-rule="evenodd" d="M0.381887 6.69972C-0.127296 8.87045 -0.127296 11.1296 0.381888 13.3003C1.11722 16.4351 3.5649 18.8828 6.69972 19.6181C8.87045 20.1273 11.1296 20.1273 13.3003 19.6181C16.4351 18.8828 18.8828 16.4351 19.6181 13.3003C20.1273 11.1296 20.1273 8.87045 19.6181 6.69972C18.8828 3.5649 16.4351 1.11721 13.3003 0.381886C11.1296 -0.127296 8.87045 -0.127294 6.69972 0.381886C3.56491 1.11721 1.11722 3.5649 0.381887 6.69972ZM10.8509 13.5633C10.8509 14.0039 10.4937 14.361 10.0531 14.361C9.61256 14.361 9.2554 14.0039 9.2554 13.5633C9.2554 13.1227 9.61256 12.7656 10.0531 12.7656C10.4937 12.7656 10.8509 13.1227 10.8509 13.5633ZM8.51086 7.76639C8.51086 6.94398 9.17756 6.27728 9.99997 6.27728C10.8224 6.27728 11.4891 6.94398 11.4891 7.76639V7.89544C11.4891 8.3246 11.3186 8.73618 11.0151 9.03964L9.5487 10.5061C9.29947 10.7553 9.29947 11.1594 9.5487 11.4086C9.79793 11.6578 10.202 11.6578 10.4512 11.4086L11.9177 9.94218C12.4605 9.39935 12.7655 8.66311 12.7655 7.89544V7.76639C12.7655 6.23905 11.5273 5.0009 9.99997 5.0009C8.47263 5.0009 7.23448 6.23905 7.23448 7.76639V8.29822C7.23448 8.65068 7.52021 8.93641 7.87267 8.93641C8.22513 8.93641 8.51086 8.65068 8.51086 8.29822V7.76639Z" fill="#4BA8E6"/>
</svg>
