<svg width="26" height="26" viewBox="0 0 26 26" fill="none" xmlns="http://www.w3.org/2000/svg">
<path d="M16.5472 5.21975L6.80733 8.76152C6.6934 8.80295 6.72313 8.97166 6.84435 8.97166H18.0378C18.0976 8.97166 18.1461 8.92316 18.1461 8.86333V6.33967C18.1461 5.5127 17.3244 4.93714 16.5472 5.21975Z" fill="#A3DAFE"/>
<path fill-rule="evenodd" clip-rule="evenodd" d="M16.8247 5.98306C17.072 5.89314 17.3334 6.07627 17.3334 6.3394V7.88818H11.5856L16.8247 5.98306ZM6.77009 7.91017L16.2693 4.4559C17.5764 3.98059 18.9584 4.94858 18.9584 6.3394V7.95514C20.3507 8.25201 21.3958 9.50107 21.3958 10.9969V17.7795C21.3958 19.4964 20.019 20.8882 18.3206 20.8882H7.13777C5.43934 20.8882 4.0625 19.4964 4.0625 17.7795V10.9969C4.0625 9.40577 5.24501 8.09385 6.77009 7.91017Z" fill="#4BA8E6"/>
<path fill-rule="evenodd" clip-rule="evenodd" d="M7.17241 11.9507C6.80105 11.9507 6.5 12.3145 6.5 12.7632C6.5 13.2119 6.80105 13.5757 7.17241 13.5757H18.8276C19.1989 13.5757 19.5 13.2119 19.5 12.7632C19.5 12.3145 19.1989 11.9507 18.8276 11.9507H7.17241ZM7.3125 15.7424C6.86377 15.7424 6.5 16.1061 6.5 16.5549C6.5 17.0036 6.86377 17.3674 7.3125 17.3674H11.6458C12.0946 17.3674 12.4583 17.0036 12.4583 16.5549C12.4583 16.1061 12.0946 15.7424 11.6458 15.7424H7.3125Z" fill="#A3DAFE"/>
</svg>
