<svg width="22" height="26" viewBox="0 0 22 26" fill="none" xmlns="http://www.w3.org/2000/svg">
<path d="M9.04695 17.5724L9.20078 10.2789C7.87504 10.0126 5.26789 9.27157 3.91345 7.4533C3.54824 6.96239 3.29155 6.40211 3.15984 5.80831C3.02812 5.21452 3.02426 4.60029 3.14852 4.00494C3.60356 1.63838 5.32165 0.957927 6.66476 1.08462C8.27931 1.25075 9.98666 2.52684 11.0024 4.44871C12.1494 2.71789 13.8572 1.12721 16.1261 1.72179C16.9107 1.90368 17.6004 2.36042 18.0657 3.0061C18.531 3.65178 18.7397 4.44193 18.6526 5.22795C18.4693 7.70092 15.8935 10.5925 11.4933 11.0773L11.4052 10.2885L9.04695 17.5724ZM15.1766 4.30535C14.0302 4.38396 12.7521 6.63729 12.1092 8.28443C14.6099 7.72446 15.8871 6.09633 15.9764 5.04979C15.9974 4.96918 16.0006 4.8851 15.9858 4.80318C15.971 4.72125 15.9385 4.64337 15.8905 4.57477C15.8425 4.50617 15.7801 4.44844 15.7075 4.40543C15.6348 4.36243 15.5537 4.33516 15.4694 4.32545C15.3735 4.30322 15.2746 4.29644 15.1766 4.30535ZM6.28659 3.76295C6.14613 3.77258 5.94889 3.87988 5.82981 4.50873C5.77261 4.74496 5.76847 4.99057 5.81767 5.22853C5.86687 5.46649 5.96824 5.69111 6.11475 5.88683C6.74449 6.73671 8.12096 7.26746 9.19233 7.54228C8.88892 5.33043 7.30872 3.85807 6.38237 3.76532L6.28659 3.76295Z" fill="white"/>
<path d="M20.9329 10.8372L0.811829 10.7407L0.740023 25.1507L20.861 25.2471L20.9329 10.8372Z" fill="#4BA8E6"/>
<path d="M21.7506 9.05511L0.266968 8.95215L0.249366 12.4845L21.733 12.5874L21.7506 9.05511Z" fill="#4BA8E6"/>
<g opacity="0.29">
<path d="M21.7506 9.05462L0.266968 8.95166L0.249366 12.484L21.733 12.587L21.7506 9.05462Z" fill="#FFCD8E"/>
</g>
<path d="M12.4159 8.21842L9.12299 8.20264L9.03558 25.744L12.3285 25.7598L12.4159 8.21842Z" fill="white"/>
</svg>
