<svg width="22" height="24" viewBox="0 0 22 24" fill="none" xmlns="http://www.w3.org/2000/svg">
<path fill-rule="evenodd" clip-rule="evenodd" d="M10.7933 3.15604C10.5727 3.29376 10.2952 3.51536 9.82182 3.89774L4.18679 8.44911C3.00736 9.40173 2.71551 9.67054 2.55809 10C2.40068 10.3295 2.37493 10.7255 2.37493 12.2416V17.5C2.37493 18.4554 2.37601 19.0967 2.42058 19.5884C2.46375 20.0647 2.5405 20.2892 2.62613 20.4376C2.7907 20.7226 3.02739 20.9593 3.31243 21.1239C3.46074 21.2095 3.68527 21.2862 4.16157 21.3294C4.65334 21.374 5.29461 21.3751 6.24994 21.3751H6.49994C6.86479 21.3751 7.08209 21.3744 7.2441 21.3634C7.34433 21.3566 7.38694 21.3474 7.39798 21.3446C7.48623 21.3067 7.55657 21.2363 7.59449 21.1481C7.59729 21.1371 7.60644 21.0945 7.61328 20.9942C7.62434 20.8322 7.62494 20.6149 7.62494 20.2501L7.62494 20.2174C7.62492 19.896 7.62491 19.6007 7.64183 19.3527C7.66001 19.0863 7.70143 18.7933 7.82476 18.4955C8.09118 17.8523 8.6022 17.3413 9.2454 17.0749C9.54316 16.9515 9.83617 16.9101 10.1026 16.8919C10.3506 16.875 10.6459 16.875 10.9673 16.8751H11.0326C11.354 16.875 11.6493 16.875 11.8973 16.8919C12.1637 16.9101 12.4567 16.9515 12.7545 17.0749C13.3977 17.3413 13.9087 17.8523 14.1751 18.4955C14.2985 18.7933 14.3399 19.0863 14.3581 19.3527C14.375 19.6007 14.375 19.896 14.3749 20.2174V20.2501C14.3749 20.6149 14.3756 20.8322 14.3866 20.9942C14.3934 21.0945 14.4026 21.1371 14.4054 21.1481C14.4433 21.2363 14.5137 21.3067 14.6019 21.3446C14.6129 21.3474 14.6556 21.3566 14.7558 21.3634C14.9178 21.3744 15.1351 21.3751 15.4999 21.3751H15.75C16.7053 21.3751 17.3465 21.374 17.8383 21.3294C18.3146 21.2862 18.5391 21.2095 18.6875 21.1239C18.9725 20.9593 19.2092 20.7226 19.3737 20.4376C19.4594 20.2893 19.5361 20.0647 19.5793 19.5884C19.6239 19.0967 19.625 18.4554 19.625 17.5001L19.625 12.2416C19.625 10.7255 19.5993 10.3295 19.4419 10C19.2845 9.67054 18.9926 9.40172 17.8131 8.44909L12.1781 3.89774C11.7046 3.51536 11.4272 3.29376 11.2066 3.15604C11.1067 3.09362 11.0495 3.0689 11.0213 3.0591C11.0084 3.0546 11.0022 3.05349 11.0013 3.05333H10.9986C10.9977 3.05349 10.9915 3.0546 10.9786 3.0591C10.9504 3.0689 10.8932 3.09362 10.7933 3.15604ZM9.60151 1.24757C9.99121 1.00422 10.4456 0.803224 10.9999 0.803223C11.5543 0.803221 12.0087 1.00422 12.3984 1.24757C12.7493 1.46669 13.1341 1.77755 13.5469 2.11104C13.5618 2.12312 13.5768 2.13523 13.5918 2.14736L19.2269 6.69872C19.2818 6.74308 19.3361 6.78685 19.3898 6.8301C20.3254 7.58411 21.0666 8.18144 21.4721 9.03011C21.8775 9.87879 21.8765 10.8307 21.8752 12.0324C21.8751 12.1013 21.875 12.171 21.875 12.2416L21.875 17.551C21.875 18.4423 21.875 19.1862 21.8201 19.7915C21.7628 20.4239 21.6386 21.0148 21.3223 21.5626C20.9602 22.1897 20.4395 22.7104 19.8125 23.0724C19.2646 23.3887 18.6738 23.5129 18.0414 23.5702C17.436 23.6251 16.6921 23.6251 15.8008 23.6251H15.4673C15.1459 23.6251 14.8506 23.6251 14.6026 23.6082C14.3362 23.59 14.0432 23.5486 13.7454 23.4252C13.1022 23.1588 12.5912 22.6478 12.3248 22.0046C12.2014 21.7068 12.16 21.4138 12.1418 21.1474C12.1249 20.8994 12.1249 20.6041 12.1249 20.2827L12.1249 20.2501C12.1249 19.8852 12.1243 19.6679 12.1133 19.5059C12.1064 19.4057 12.0973 19.3631 12.0945 19.352C12.0566 19.2638 11.9862 19.1934 11.898 19.1555C11.8869 19.1527 11.8443 19.1436 11.7441 19.1367C11.5821 19.1257 11.3648 19.1251 10.9999 19.1251C10.6351 19.1251 10.4178 19.1257 10.2558 19.1367C10.1556 19.1436 10.113 19.1527 10.1019 19.1555C10.0137 19.1934 9.94332 19.2638 9.9054 19.352C9.9026 19.3631 9.89345 19.4057 9.88661 19.5059C9.87555 19.6679 9.87494 19.8852 9.87494 20.2501L9.87495 20.2827C9.87497 20.6041 9.87498 20.8994 9.85806 21.1474C9.83988 21.4138 9.79846 21.7068 9.67513 22.0046C9.40871 22.6478 8.89769 23.1588 8.25449 23.4252C7.95673 23.5486 7.66372 23.59 7.39726 23.6082C7.14927 23.6251 6.854 23.6251 6.53259 23.6251H6.19908C5.30776 23.6251 4.56389 23.6251 3.95848 23.5702C3.32612 23.5129 2.73526 23.3887 2.18742 23.0724C1.56035 22.7104 1.03962 22.1896 0.677581 21.5626C0.361283 21.0147 0.237076 20.4239 0.179763 19.7915C0.124893 19.1861 0.12491 18.4422 0.124929 17.5509L0.12493 12.2416C0.12493 12.171 0.124854 12.1012 0.124779 12.0323C0.123474 10.8307 0.12244 9.87877 0.52789 9.0301C0.93334 8.18144 1.67452 7.58413 2.61013 6.83012C2.6638 6.78687 2.71811 6.7431 2.77303 6.69874L8.40807 2.14737C8.42309 2.13524 8.43808 2.12313 8.45303 2.11105C8.86582 1.77756 9.2506 1.4667 9.60151 1.24757Z" fill="#4BA8E6"/>
</svg>
