<svg width="24" height="23" viewBox="0 0 24 23" fill="none" xmlns="http://www.w3.org/2000/svg">
<path fill-rule="evenodd" clip-rule="evenodd" d="M0 9.42188C0 7.1437 1.84683 5.29688 4.125 5.29688H19.125C21.4032 5.29688 23.25 7.1437 23.25 9.42188V18.4219C23.25 20.7001 21.4032 22.5469 19.125 22.5469H4.125C1.84683 22.5469 0 20.7 0 18.4219V9.42188ZM4.125 7.54688C3.08947 7.54688 2.25 8.38634 2.25 9.42188V18.4219C2.25 19.4574 3.08947 20.2969 4.125 20.2969H19.125C20.1605 20.2969 21 19.4574 21 18.4219V9.42188C21 8.38634 20.1605 7.54688 19.125 7.54688H4.125Z" fill="#23262F"/>
<path fill-rule="evenodd" clip-rule="evenodd" d="M18.0001 2.77741C18.0001 2.41307 17.6381 2.15951 17.2957 2.28401L9.01082 5.2967H18.0001V2.77741ZM16.5268 0.16948C18.3366 -0.488633 20.2501 0.851659 20.2501 2.77741V6.2717C20.2501 6.97587 19.6793 7.5467 18.9751 7.5467H3.47655C2.04987 7.5467 1.70003 5.56102 3.04083 5.07347L16.5268 0.16948Z" fill="#23262F"/>
<path fill-rule="evenodd" clip-rule="evenodd" d="M0.75 11.6719C0.75 11.0506 1.25368 10.5469 1.875 10.5469H21.375C21.9963 10.5469 22.5 11.0506 22.5 11.6719C22.5 12.2932 21.9963 12.7969 21.375 12.7969H1.875C1.25368 12.7969 0.75 12.2932 0.75 11.6719Z" fill="#23262F"/>
<path fill-rule="evenodd" clip-rule="evenodd" d="M3 16.9219C3 16.3006 3.50368 15.7969 4.125 15.7969L10.125 15.7969C10.7463 15.7969 11.25 16.3006 11.25 16.9219C11.25 17.5432 10.7463 18.0469 10.125 18.0469H4.125C3.50368 18.0469 3 17.5432 3 16.9219Z" fill="#23262F"/>
</svg>
