<svg width="24" height="24" viewBox="0 0 24 24" fill="none" xmlns="http://www.w3.org/2000/svg">
<path fill-rule="evenodd" clip-rule="evenodd" d="M4.875 5.5C4.875 2.66954 7.16954 0.375 10 0.375H17.3339C20.8084 0.375 23.625 3.1916 23.625 6.66606V9.35015C23.625 11.5507 21.758 13.2892 19.563 13.1324C18.9338 13.0874 18.4399 12.6001 18.3681 11.9902C18.3413 11.7626 18.2615 11.2183 18.0683 10.617C17.87 10 17.5843 9.42531 17.2045 9.0455C15.7674 7.60841 13.6049 7.125 11.2298 7.125H6.5C5.60254 7.125 4.875 6.39746 4.875 5.5ZM7.19313 4.875H11.2298C13.8151 4.875 16.7251 5.38407 18.7955 7.45451C19.5367 8.19575 19.9621 9.15608 20.2103 9.92851C20.3062 10.2268 20.3805 10.5124 20.4377 10.769C20.9861 10.5348 21.375 9.99061 21.375 9.35015V6.66606C21.375 4.43424 19.5658 2.625 17.3339 2.625H10C8.62682 2.625 7.47849 3.5877 7.19313 4.875Z" fill="#23262F"/>
<path fill-rule="evenodd" clip-rule="evenodd" d="M0.375 12.4286C0.375 8.25685 3.75685 4.875 7.92857 4.875H13.0714C17.2432 4.875 20.625 8.25685 20.625 12.4286C20.625 16.6003 17.2432 19.9821 13.0714 19.9821H12.2517L9.35301 22.8808C8.00832 24.2255 5.74695 22.9451 6.20817 21.1003L6.50346 19.9191C3.04344 19.4556 0.375 16.4919 0.375 12.905V12.4286ZM7.92857 7.125C4.99949 7.125 2.625 9.49949 2.625 12.4286V12.905C2.625 15.571 4.78617 17.7321 7.45211 17.7321C8.42602 17.7321 9.14063 18.6474 8.90442 19.5922L8.71935 20.3325L10.8526 18.1993C11.1517 17.9002 11.5574 17.7321 11.9804 17.7321H13.0714C16.0005 17.7321 18.375 15.3577 18.375 12.4286C18.375 9.49949 16.0005 7.125 13.0714 7.125H7.92857Z" fill="#23262F"/>
</svg>
