<svg width="22" height="24" viewBox="0 0 22 24" fill="none" xmlns="http://www.w3.org/2000/svg">
<path fill-rule="evenodd" clip-rule="evenodd" d="M11 2.625C9.13604 2.625 7.625 4.13604 7.625 6C7.625 7.86396 9.13604 9.375 11 9.375C12.864 9.375 14.375 7.86396 14.375 6C14.375 4.13604 12.864 2.625 11 2.625ZM5.375 6C5.375 2.8934 7.8934 0.375 11 0.375C14.1066 0.375 16.625 2.8934 16.625 6C16.625 9.1066 14.1066 11.625 11 11.625C7.8934 11.625 5.375 9.1066 5.375 6Z" fill="#23262F"/>
<path fill-rule="evenodd" clip-rule="evenodd" d="M2.37866 17.0437C4.08773 15.2178 6.84201 13.875 11 13.875C15.158 13.875 17.9123 15.2178 19.6213 17.0437C21.301 18.8382 21.875 20.9985 21.875 22.5C21.875 23.1213 21.3713 23.625 20.75 23.625H1.25C0.62868 23.625 0.125 23.1213 0.125 22.5C0.125 20.9985 0.699006 18.8382 2.37866 17.0437ZM2.5157 21.375H19.4843C19.2775 20.5008 18.8214 19.4817 17.9787 18.5813C16.7627 17.2822 14.642 16.125 11 16.125C7.35799 16.125 5.23727 17.2822 4.02134 18.5813C3.17859 19.4817 2.72251 20.5008 2.5157 21.375Z" fill="#23262F"/>
</svg>
